<svg width="32" height="32" viewBox="0 0 9 11" fill="none" xmlns="http://www.w3.org/2000/svg">
    <path d="M7.79078 4.57548C7.64938 4.40808 7.47724 4.263 7.3174 4.11793C6.90549 3.78314 6.43824 3.5432 6.04478 3.19167C5.12874 2.37702 4.92586 1.03227 5.50991 0C4.92586 0.128337 4.41558 0.418489 3.97908 0.73654C2.38678 1.89715 1.75969 3.94495 2.50973 5.70261C2.53432 5.7584 2.55892 5.8142 2.55892 5.88674C2.55892 6.0095 2.4667 6.12109 2.34374 6.16573C2.20234 6.22153 2.05479 6.18805 1.93798 6.09877C1.90309 6.07225 1.8739 6.04008 1.85191 6.00392C1.15719 5.206 1.04653 4.06213 1.51377 3.14703C0.487072 3.90589 -0.0723874 5.18926 0.00753533 6.40009C0.0444228 6.67908 0.0813102 6.95807 0.185825 7.23706C0.271895 7.57185 0.437889 7.90665 0.622326 8.20238C1.2863 9.16769 2.43596 9.85959 3.67169 9.99909C4.98734 10.1497 6.39521 9.93213 7.40347 9.10631C8.52853 8.18006 8.922 6.69582 8.3441 5.42361L8.26417 5.27854C8.13507 5.02186 7.79078 4.57548 7.79078 4.57548ZM5.84805 8.09078C5.6759 8.2247 5.3931 8.36977 5.17178 8.42557C4.48321 8.64876 3.79465 8.33629 3.38888 7.96802C4.12048 7.81179 4.55699 7.32076 4.68609 6.82415C4.79061 6.37777 4.59387 6.0095 4.51395 5.57985C4.44018 5.16694 4.45247 4.81541 4.61846 4.4304C4.73528 4.64243 4.85823 4.85447 5.00578 5.02186C5.47917 5.57985 6.22307 5.82536 6.38291 6.58422C6.40751 6.66234 6.4198 6.74046 6.4198 6.82415C6.43825 7.2817 6.21692 7.78389 5.84805 8.09078Z" fill="url(#paint0_linear_91_140)"/>
    <defs>
        <linearGradient id="paint0_linear_91_140" x1="5.02171" y1="12.3113" x2="5.02431" y2="-2.91584" gradientUnits="userSpaceOnUse">
            <stop stop-color="#FF0900"/>
            <stop offset="1" stop-color="#FFB400"/>
        </linearGradient>
    </defs>
</svg>