<svg width="32" height="32" viewBox="0 0 32 32" fill="none" xmlns="http://www.w3.org/2000/svg">
    <path d="M15.625 0C24.2547 0 31.25 6.99531 31.25 15.625C31.25 24.2547 24.2547 31.25 15.625 31.25C6.99531 31.25 0 24.2547 0 15.625C0 6.99531 6.99531 0 15.625 0ZM15.625 3.125C12.3098 3.125 9.13037 4.44196 6.78616 6.78616C4.44196 9.13037 3.125 12.3098 3.125 15.625C3.125 18.9402 4.44196 22.1196 6.78616 24.4638C9.13037 26.808 12.3098 28.125 15.625 28.125C18.9402 28.125 22.1196 26.808 24.4638 24.4638C26.808 22.1196 28.125 18.9402 28.125 15.625C28.125 12.3098 26.808 9.13037 24.4638 6.78616C22.1196 4.44196 18.9402 3.125 15.625 3.125ZM15.625 6.25C16.0077 6.25005 16.3771 6.39056 16.6631 6.64487C16.9491 6.89918 17.1318 7.24961 17.1766 7.62969L17.1875 7.8125V14.9781L21.4172 19.2078C21.6974 19.489 21.8601 19.8663 21.8722 20.2631C21.8843 20.6599 21.745 21.0464 21.4824 21.3442C21.2199 21.6419 20.8538 21.8286 20.4586 21.8662C20.0634 21.9039 19.6687 21.7897 19.3547 21.5469L19.2078 21.4172L14.5203 16.7297C14.2775 16.4866 14.1215 16.1703 14.0766 15.8297L14.0625 15.625V7.8125C14.0625 7.3981 14.2271 7.00067 14.5201 6.70765C14.8132 6.41462 15.2106 6.25 15.625 6.25Z" fill="white"/>
</svg>
