<svg width="171" height="46" viewBox="0 0 171 46" fill="none" xmlns="http://www.w3.org/2000/svg">
    <g filter="url(#filter0_d_91_138)">
        <path d="M26.5597 11.3052V16.677H16.8492V20.9469H24.0115V26.0777H16.8492V35.5816H10.1V11.3052H26.5597Z" fill="url(#paint0_linear_91_138)"/>
        <path d="M36.1514 16.2638V35.5816H29.4022V16.2638H36.1514Z" fill="url(#paint1_linear_91_138)"/>
        <path d="M46.744 19.6728C47.5016 18.5709 48.4198 17.6986 49.4988 17.0558C50.5777 16.413 51.737 16.0916 52.9767 16.0916V23.2885H51.0828C49.6136 23.2885 48.5231 23.5754 47.8115 24.1493C47.0998 24.7232 46.744 25.7219 46.744 27.1452V35.5816H39.9948V16.2638H46.744V19.6728Z" fill="url(#paint2_linear_91_138)"/>
        <path d="M73.8532 25.6989C73.8532 26.2269 73.8187 26.7549 73.7499 27.2829H60.9746C61.0435 28.3389 61.3305 29.1309 61.8355 29.6589C62.3635 30.1639 63.0292 30.4164 63.8327 30.4164C64.9576 30.4164 65.7611 29.9114 66.2431 28.9013H73.44C73.1415 30.2328 72.5561 31.4265 71.6838 32.4825C70.8344 33.5156 69.7555 34.3305 68.447 34.9274C67.1384 35.5243 65.6922 35.8227 64.1082 35.8227C62.2028 35.8227 60.504 35.4209 59.0119 34.6175C57.5427 33.814 56.3834 32.6662 55.534 31.174C54.7076 29.6818 54.2943 27.9257 54.2943 25.9055C54.2943 23.8853 54.7076 22.1407 55.534 20.6714C56.3604 19.1793 57.5082 18.0314 58.9774 17.228C60.4696 16.4245 62.1799 16.0228 64.1082 16.0228C66.0136 16.0228 67.7009 16.413 69.1701 17.1935C70.6393 17.9741 71.7871 19.0989 72.6135 20.5681C73.44 22.0144 73.8532 23.7246 73.8532 25.6989ZM66.9663 24.0116C66.9663 23.1852 66.6908 22.5424 66.1398 22.0833C65.5889 21.6012 64.9002 21.3601 64.0738 21.3601C63.2473 21.3601 62.5701 21.5897 62.0421 22.0488C61.5141 22.485 61.1698 23.1393 61.0091 24.0116H66.9663Z" fill="url(#paint3_linear_91_138)"/>
        <path d="M83.3644 30.4164H90.9056V35.5816H76.6152V11.3052H83.3644V30.4164Z" fill="url(#paint4_linear_91_138)"/>
        <path d="M92.4279 25.9055C92.4279 23.9083 92.7838 22.1636 93.4954 20.6714C94.23 19.1793 95.2171 18.0314 96.4568 17.228C97.7194 16.4245 99.1197 16.0228 100.658 16.0228C101.989 16.0228 103.137 16.2868 104.101 16.8148C105.065 17.3428 105.812 18.0544 106.34 18.9497V16.2638H113.089V35.5816H106.34V32.8957C105.812 33.791 105.054 34.5027 104.067 35.0307C103.103 35.5587 101.966 35.8227 100.658 35.8227C99.1197 35.8227 97.7194 35.4209 96.4568 34.6175C95.2171 33.814 94.23 32.6662 93.4954 31.174C92.7838 29.6589 92.4279 27.9027 92.4279 25.9055ZM106.34 25.9055C106.34 24.6659 105.995 23.6902 105.306 22.9786C104.641 22.2669 103.814 21.9111 102.827 21.9111C101.817 21.9111 100.979 22.2669 100.313 22.9786C99.6477 23.6673 99.3149 24.6429 99.3149 25.9055C99.3149 27.1452 99.6477 28.1323 100.313 28.8669C100.979 29.5785 101.817 29.9344 102.827 29.9344C103.814 29.9344 104.641 29.5785 105.306 28.8669C105.995 28.1552 106.34 27.1681 106.34 25.9055Z" fill="url(#paint5_linear_91_138)"/>
        <path d="M129.572 16.0916C131.799 16.0916 133.567 16.8377 134.875 18.3299C136.184 19.7991 136.838 21.7963 136.838 24.3215V35.5816H130.089V25.2168C130.089 24.1149 129.802 23.254 129.228 22.6342C128.654 21.9914 127.885 21.67 126.921 21.67C125.911 21.67 125.119 21.9914 124.545 22.6342C123.971 23.254 123.684 24.1149 123.684 25.2168V35.5816H116.935V16.2638H123.684V19.0186C124.281 18.1462 125.084 17.4461 126.094 16.9181C127.104 16.3671 128.264 16.0916 129.572 16.0916Z" fill="url(#paint6_linear_91_138)"/>
        <path d="M139.439 25.9055C139.439 23.9083 139.795 22.1636 140.507 20.6714C141.241 19.1793 142.24 18.0314 143.503 17.228C144.765 16.4245 146.165 16.0228 147.704 16.0228C148.943 16.0228 150.045 16.2868 151.009 16.8148C151.996 17.3198 152.765 18.02 153.316 18.9153V10.1H160.1V35.5816H153.316V32.8957C152.788 33.791 152.042 34.5027 151.078 35.0307C150.114 35.5587 148.978 35.8227 147.669 35.8227C146.131 35.8227 144.731 35.4209 143.468 34.6175C142.228 33.814 141.241 32.6662 140.507 31.174C139.795 29.6589 139.439 27.9027 139.439 25.9055ZM153.351 25.9055C153.351 24.6659 153.006 23.6902 152.318 22.9786C151.652 22.2669 150.826 21.9111 149.838 21.9111C148.828 21.9111 147.99 22.2669 147.325 22.9786C146.659 23.6673 146.326 24.6429 146.326 25.9055C146.326 27.1452 146.659 28.1323 147.325 28.8669C147.99 29.5785 148.828 29.9344 149.838 29.9344C150.826 29.9344 151.652 29.5785 152.318 28.8669C153.006 28.1552 153.351 27.1681 153.351 25.9055Z" fill="url(#paint7_linear_91_138)"/>
    </g>
    <path d="M36.5429 8.5921C36.4015 8.4247 36.2293 8.27963 36.0695 8.13455C35.6576 7.79976 35.1903 7.55983 34.7969 7.2083C33.8808 6.39364 33.6779 5.0489 34.262 4.01662C33.6779 4.14496 33.1677 4.43511 32.7312 4.75316C31.1389 5.91377 30.5118 7.96158 31.2618 9.71923C31.2864 9.77503 31.311 9.83083 31.311 9.90336C31.311 10.0261 31.2188 10.1377 31.0958 10.1824C30.9544 10.2382 30.8069 10.2047 30.6901 10.1154C30.6552 10.0889 30.626 10.0567 30.604 10.0205C29.9093 9.22262 29.7986 8.07875 30.2658 7.16366C29.2391 7.92252 28.6797 9.20588 28.7596 10.4167C28.7965 10.6957 28.8334 10.9747 28.9379 11.2537C29.024 11.5885 29.19 11.9233 29.3744 12.219C30.0384 13.1843 31.188 13.8762 32.4238 14.0157C33.7394 14.1664 35.1473 13.9488 36.1555 13.1229C37.2806 12.1967 37.6741 10.7124 37.0962 9.44024L37.0162 9.29516C36.8871 9.03849 36.5429 8.5921 36.5429 8.5921ZM34.6001 12.1074C34.428 12.2413 34.1452 12.3864 33.9239 12.4422C33.2353 12.6654 32.5467 12.3529 32.141 11.9846C32.8726 11.8284 33.3091 11.3374 33.4382 10.8408C33.5427 10.3944 33.3459 10.0261 33.266 9.59647C33.1923 9.18356 33.2045 8.83203 33.3705 8.44702C33.4874 8.65906 33.6103 8.87109 33.7579 9.03849C34.2312 9.59647 34.9751 9.84199 35.135 10.6008C35.1596 10.679 35.1719 10.7571 35.1719 10.8408C35.1903 11.2983 34.969 11.8005 34.6001 12.1074Z" fill="url(#paint8_linear_91_138)"/>
    <defs>
        <filter id="filter0_d_91_138" x="-2.47955e-05" y="0" width="170.2" height="45.9227" filterUnits="userSpaceOnUse" color-interpolation-filters="sRGB">
            <feFlood flood-opacity="0" result="BackgroundImageFix"/>
            <feColorMatrix in="SourceAlpha" type="matrix" values="0 0 0 0 0 0 0 0 0 0 0 0 0 0 0 0 0 0 127 0" result="hardAlpha"/>
            <feOffset/>
            <feGaussianBlur stdDeviation="5.05"/>
            <feComposite in2="hardAlpha" operator="out"/>
            <feColorMatrix type="matrix" values="0 0 0 0 1 0 0 0 0 0.0333333 0 0 0 0 0 0 0 0 0.5 0"/>
            <feBlend mode="normal" in2="BackgroundImageFix" result="effect1_dropShadow_91_138"/>
            <feBlend mode="normal" in="SourceGraphic" in2="effect1_dropShadow_91_138" result="shape"/>
        </filter>
        <linearGradient id="paint0_linear_91_138" x1="11.0412" y1="24.1034" x2="203.301" y2="24.1035" gradientUnits="userSpaceOnUse">
            <stop stop-color="#FF6A00"/>
            <stop offset="1" stop-color="#FFB400"/>
        </linearGradient>
        <linearGradient id="paint1_linear_91_138" x1="11.0412" y1="24.1034" x2="203.301" y2="24.1035" gradientUnits="userSpaceOnUse">
            <stop stop-color="#FF6A00"/>
            <stop offset="1" stop-color="#FFB400"/>
        </linearGradient>
        <linearGradient id="paint2_linear_91_138" x1="11.0412" y1="24.1034" x2="203.301" y2="24.1035" gradientUnits="userSpaceOnUse">
            <stop stop-color="#FF6A00"/>
            <stop offset="1" stop-color="#FFB400"/>
        </linearGradient>
        <linearGradient id="paint3_linear_91_138" x1="11.0412" y1="24.1034" x2="203.301" y2="24.1035" gradientUnits="userSpaceOnUse">
            <stop stop-color="#FF6A00"/>
            <stop offset="1" stop-color="#FFB400"/>
        </linearGradient>
        <linearGradient id="paint4_linear_91_138" x1="11.0412" y1="24.1034" x2="203.301" y2="24.1035" gradientUnits="userSpaceOnUse">
            <stop stop-color="#FF6A00"/>
            <stop offset="1" stop-color="#FFB400"/>
        </linearGradient>
        <linearGradient id="paint5_linear_91_138" x1="11.0412" y1="24.1034" x2="203.301" y2="24.1035" gradientUnits="userSpaceOnUse">
            <stop stop-color="#FF6A00"/>
            <stop offset="1" stop-color="#FFB400"/>
        </linearGradient>
        <linearGradient id="paint6_linear_91_138" x1="11.0412" y1="24.1034" x2="203.301" y2="24.1035" gradientUnits="userSpaceOnUse">
            <stop stop-color="#FF6A00"/>
            <stop offset="1" stop-color="#FFB400"/>
        </linearGradient>
        <linearGradient id="paint7_linear_91_138" x1="11.0412" y1="24.1034" x2="203.301" y2="24.1035" gradientUnits="userSpaceOnUse">
            <stop stop-color="#FF6A00"/>
            <stop offset="1" stop-color="#FFB400"/>
        </linearGradient>
        <linearGradient id="paint8_linear_91_138" x1="33.7738" y1="16.3279" x2="33.7764" y2="1.10079" gradientUnits="userSpaceOnUse">
            <stop stop-color="#FF0900"/>
            <stop offset="1" stop-color="#FFB400"/>
        </linearGradient>
    </defs>
</svg>
