<svg width="27" height="33" viewBox="0 0 27 33" fill="none" xmlns="http://www.w3.org/2000/svg">
    <path d="M13.3333 0C6.33333 0 0 5.36667 0 13.6667C0 18.9667 4.08333 25.2 12.2333 32.3833C12.8667 32.9333 13.8167 32.9333 14.45 32.3833C22.5833 25.2 26.6667 18.9667 26.6667 13.6667C26.6667 5.36667 20.3333 0 13.3333 0ZM13.3333 16.6667C11.5 16.6667 10 15.1667 10 13.3333C10 11.5 11.5 10 13.3333 10C15.1667 10 16.6667 11.5 16.6667 13.3333C16.6667 15.1667 15.1667 16.6667 13.3333 16.6667Z" fill="white"/>
</svg>
