<svg width="60" height="60" viewBox="0 0 60 60" fill="none" xmlns="http://www.w3.org/2000/svg">
    <circle cx="30" cy="30" r="30" fill="#FF6A00"/>
    <path d="M30 14.375C38.6297 14.375 45.625 21.3703 45.625 30C45.625 38.6297 38.6297 45.625 30 45.625C21.3703 45.625 14.375 38.6297 14.375 30C14.375 21.3703 21.3703 14.375 30 14.375ZM30 17.5C26.6848 17.5 23.5054 18.817 21.1612 21.1612C18.817 23.5054 17.5 26.6848 17.5 30C17.5 33.3152 18.817 36.4946 21.1612 38.8388C23.5054 41.183 26.6848 42.5 30 42.5C33.3152 42.5 36.4946 41.183 38.8388 38.8388C41.183 36.4946 42.5 33.3152 42.5 30C42.5 26.6848 41.183 23.5054 38.8388 21.1612C36.4946 18.817 33.3152 17.5 30 17.5ZM30 20.625C30.3827 20.6251 30.7521 20.7656 31.0381 21.0199C31.3241 21.2742 31.5068 21.6246 31.5516 22.0047L31.5625 22.1875V29.3531L35.7922 33.5828C36.0724 33.864 36.2351 34.2413 36.2472 34.6381C36.2593 35.0349 36.12 35.4214 35.8574 35.7192C35.5949 36.0169 35.2288 36.2036 34.8336 36.2412C34.4384 36.2789 34.0437 36.1647 33.7297 35.9219L33.5828 35.7922L28.8953 31.1047C28.6525 30.8616 28.4965 30.5453 28.4516 30.2047L28.4375 30V22.1875C28.4375 21.7731 28.6021 21.3757 28.8951 21.0826C29.1882 20.7896 29.5856 20.625 30 20.625Z" fill="white"/>
</svg>
