<svg width="60" height="60" viewBox="0 0 60 60" fill="none" xmlns="http://www.w3.org/2000/svg">
    <circle cx="30" cy="30" r="30" fill="#FF6A00"/>
    <path d="M40.7607 28.2579C40.3113 27.6631 39.7642 27.1476 39.2562 26.6321C37.947 25.4425 36.462 24.5899 35.2115 23.3408C32.3002 20.4462 31.6554 15.6679 33.5116 12C31.6554 12.456 30.0336 13.487 28.6463 14.6171C23.5856 18.7411 21.5926 26.0174 23.9764 32.2628C24.0546 32.4611 24.1327 32.6594 24.1327 32.9171C24.1327 33.3533 23.8397 33.7498 23.4489 33.9085C22.9995 34.1067 22.5305 33.9878 22.1593 33.6705C22.0484 33.5763 21.9556 33.462 21.8857 33.3335C19.6778 30.4983 19.3261 26.4338 20.8111 23.1822C17.548 25.8787 15.7699 30.4388 16.0239 34.7412C16.1412 35.7325 16.2584 36.7238 16.5906 37.7152C16.8641 38.9048 17.3917 40.0944 17.9779 41.1452C20.0881 44.5752 23.742 47.0337 27.6694 47.5294C31.8508 48.0647 36.3253 47.2914 39.5297 44.3571C43.1054 41.0659 44.3559 35.792 42.5192 31.2715L42.2652 30.756C41.8549 29.844 40.7607 28.2579 40.7607 28.2579ZM34.5863 40.7486C34.0392 41.2245 33.1404 41.74 32.4369 41.9382C30.2485 42.7313 28.0601 41.621 26.7706 40.3125C29.0957 39.7573 30.483 38.0126 30.8933 36.248C31.2255 34.6619 30.6003 33.3533 30.3462 31.8267C30.1118 30.3595 30.1508 29.1104 30.6784 27.7424C31.0497 28.4958 31.4404 29.2492 31.9094 29.844C33.4139 31.8267 35.7782 32.699 36.2862 35.3955C36.3643 35.673 36.4034 35.9506 36.4034 36.248C36.462 37.8738 35.7586 39.6582 34.5863 40.7486Z" fill="white"/>
</svg>
