<svg width="60" height="60" viewBox="0 0 60 60" fill="none" xmlns="http://www.w3.org/2000/svg">
    <circle cx="30" cy="30" r="30" fill="#FF6A00"/>
    <path d="M30 13.3333C23 13.3333 16.6667 18.6999 16.6667 26.9999C16.6667 32.2999 20.75 38.5333 28.9 45.7166C29.5334 46.2666 30.4834 46.2666 31.1167 45.7166C39.25 38.5333 43.3334 32.2999 43.3334 26.9999C43.3334 18.6999 37 13.3333 30 13.3333ZM30 29.9999C28.1667 29.9999 26.6667 28.4999 26.6667 26.6666C26.6667 24.8333 28.1667 23.3333 30 23.3333C31.8334 23.3333 33.3334 24.8333 33.3334 26.6666C33.3334 28.4999 31.8334 29.9999 30 29.9999Z" fill="white"/>
</svg>
