<svg width="60" height="60" viewBox="0 0 60 60" fill="none" xmlns="http://www.w3.org/2000/svg">
    <circle cx="30" cy="30" r="30" fill="#FF6A00"/>
    <path d="M31.6667 20H28.3334V21.6667C28.3334 22.1087 28.509 22.5326 28.8215 22.8452C29.1341 23.1577 29.558 23.3333 30 23.3333C30.4421 23.3333 30.866 23.1577 31.1786 22.8452C31.4911 22.5326 31.6667 22.1087 31.6667 21.6667V20Z" fill="white"/>
    <path fill-rule="evenodd" clip-rule="evenodd" d="M20 13.3333V16.6666H21.6667V21.6666C21.6667 23.8767 22.5446 25.9963 24.1074 27.5591C25.6702 29.1219 27.7899 29.9999 30 29.9999C27.7899 29.9999 25.6702 30.8779 24.1074 32.4407C22.5446 34.0035 21.6667 36.1231 21.6667 38.3333V43.3333H20V46.6666H40V43.3333H38.3333V38.3333C38.3333 36.1231 37.4554 34.0035 35.8926 32.4407C34.3298 30.8779 32.2101 29.9999 30 29.9999C31.0943 29.9999 32.178 29.7844 33.189 29.3656C34.2001 28.9468 35.1187 28.333 35.8926 27.5591C36.6664 26.7853 37.2802 25.8667 37.699 24.8556C38.1178 23.8446 38.3333 22.7609 38.3333 21.6666V16.6666H40V13.3333H20ZM25 16.6666H35V21.6666C35 22.9927 34.4732 24.2644 33.5355 25.2021C32.5979 26.1398 31.3261 26.6666 30 26.6666C28.6739 26.6666 27.4021 26.1398 26.4645 25.2021C25.5268 24.2644 25 22.9927 25 21.6666V16.6666ZM25 38.3333V43.3333H35V38.3333C35 37.0072 34.4732 35.7354 33.5355 34.7977C32.5979 33.86 31.3261 33.3333 30 33.3333C28.6739 33.3333 27.4021 33.86 26.4645 34.7977C25.5268 35.7354 25 37.0072 25 38.3333Z" fill="white"/>
</svg>
