<svg width="24" height="24" viewBox="0 0 24 24" fill="none" xmlns="http://www.w3.org/2000/svg">
    <path d="M17.8992 17.3892C17.6392 16.5893 16.8893 15.9993 15.9993 15.9993H14.9993V12.9994C14.9993 12.7342 14.894 12.4799 14.7065 12.2923C14.5189 12.1048 14.2646 11.9995 13.9994 11.9995H7.99963V9.99954H9.99954C10.2647 9.99954 10.5191 9.89419 10.7066 9.70666C10.8941 9.51913 10.9995 9.26479 10.9995 8.99958V6.99967H12.9994C13.5298 6.99967 14.0385 6.78896 14.4136 6.41391C14.7886 6.03885 14.9993 5.53016 14.9993 4.99975V4.58977C16.1958 5.07211 17.2575 5.83719 18.0936 6.81951C18.9298 7.80183 19.5154 8.97213 19.8005 10.2302C20.0855 11.4884 20.0614 12.7968 19.7303 14.0436C19.3992 15.2904 18.7709 16.4383 17.8992 17.3892ZM10.9995 19.9291C7.04967 19.4391 3.99979 16.0793 3.99979 11.9995C3.99979 11.3795 4.07979 10.7795 4.20979 10.2095L8.99958 14.9993V15.9993C8.99958 16.5297 9.21029 17.0384 9.58535 17.4134C9.9604 17.7885 10.4691 17.9992 10.9995 17.9992M11.9995 1.99988C10.6863 1.99988 9.38599 2.25852 8.17278 2.76105C6.95958 3.26358 5.85723 4.00014 4.92869 4.92869C3.0534 6.80397 1.99988 9.3474 1.99988 11.9995C1.99988 14.6515 3.0534 17.1949 4.92869 19.0702C5.85723 19.9988 6.95958 20.7353 8.17278 21.2379C9.38599 21.7404 10.6863 21.999 11.9995 21.999C14.6515 21.999 17.1949 20.9455 19.0702 19.0702C20.9455 17.1949 21.999 14.6515 21.999 11.9995C21.999 10.6863 21.7404 9.38599 21.2379 8.17278C20.7353 6.95958 19.9988 5.85723 19.0702 4.92869C18.1417 4.00014 17.0393 3.26358 15.8261 2.76105C14.6129 2.25852 13.3126 1.99988 11.9995 1.99988Z" fill="url(#paint0_linear_91_58)"/>
    <defs>
        <linearGradient id="paint0_linear_91_58" x1="11.9995" y1="1.99988" x2="11.9995" y2="21.999" gradientUnits="userSpaceOnUse">
            <stop stop-color="#FF6A00"/>
            <stop offset="1" stop-color="#FFB400"/>
        </linearGradient>
    </defs>
</svg>
