<svg width="40" height="40" viewBox="0 0 40 40" fill="none" xmlns="http://www.w3.org/2000/svg">
    <path d="M32.1516 10H33.335C33.777 10 34.2009 10.1756 34.5135 10.4882C34.8261 10.8007 35.0016 11.2247 35.0016 11.6667V23.3334C35.0016 23.7754 34.8261 24.1993 34.5135 24.5119C34.2009 24.8244 33.777 25 33.335 25H30.0016L23.0516 15.2734C22.6474 14.7078 22.0765 14.2827 21.4187 14.0577C20.7609 13.8326 20.0493 13.8189 19.3833 14.0184L15.24 15.2617C14.6636 15.4342 14.0513 15.4476 13.4679 15.3003C12.8846 15.153 12.352 14.8505 11.9266 14.425L11.4383 13.9367C11.264 13.7624 11.1305 13.5516 11.0474 13.3194C10.9644 13.0873 10.9339 12.8396 10.9581 12.5943C10.9823 12.3489 11.0607 12.112 11.1876 11.9006C11.3144 11.6892 11.4866 11.5085 11.6916 11.3717L20.6933 5.37169C21.2307 5.01321 21.8606 4.81858 22.5065 4.81148C23.1525 4.80438 23.7865 4.98511 24.3316 5.33169L31.2583 9.74003C31.5249 9.90943 31.8358 9.9996 32.1516 10ZM8.37831 23.825L5.68498 26.1817C5.5009 26.3431 5.35463 26.543 5.25657 26.7673C5.1585 26.9916 5.11104 27.2347 5.11756 27.4794C5.12408 27.7241 5.18443 27.9644 5.29431 28.1831C5.40419 28.4018 5.5609 28.5937 5.75331 28.745L14.32 35.4784C14.5083 35.6266 14.7264 35.7325 14.9593 35.7888C15.1923 35.8451 15.4347 35.8505 15.6699 35.8046C15.9051 35.7587 16.1277 35.6627 16.3225 35.523C16.5172 35.3832 16.6795 35.2032 16.7983 34.995L17.9716 32.9417C18.321 32.3302 18.4678 31.6238 18.3908 30.9237C18.3139 30.2237 18.0172 29.566 17.5433 29.045L13.04 24.0917C12.4527 23.4456 11.6354 23.0556 10.7636 23.0058C9.89192 22.9559 9.03544 23.2501 8.37831 23.825ZM11.7433 8.33336H4.99998C4.55795 8.33336 4.13403 8.50895 3.82147 8.82152C3.50891 9.13408 3.33331 9.558 3.33331 10V22.5267C3.3334 23.1989 3.53674 23.8554 3.91665 24.41L4.03998 24.3L6.73165 21.9434C7.88163 20.9371 9.38057 20.4222 10.9062 20.5095C12.4318 20.5967 13.8622 21.2792 14.89 22.41L19.3933 27.3634C20.2221 28.2748 20.7411 29.4253 20.8758 30.6498C21.0105 31.8744 20.7541 33.1102 20.1433 34.18L19.0516 36.09C19.5226 36.2686 20.0279 36.3382 20.5296 36.2934C21.0313 36.2487 21.5164 36.0908 21.9483 35.8317L29.2983 31.4217C29.4954 31.3033 29.6658 31.1454 29.7989 30.9579C29.932 30.7704 30.0249 30.5575 30.0717 30.3324C30.1185 30.1073 30.1182 29.8749 30.0709 29.6499C30.0236 29.4249 29.9302 29.2122 29.7966 29.025L21.0183 16.7267C20.9172 16.5855 20.7745 16.4793 20.6102 16.4231C20.4458 16.367 20.268 16.3635 20.1016 16.4134L15.9583 17.655C14.9496 17.9576 13.8779 17.9815 12.8567 17.7242C11.8356 17.4668 10.9031 16.9378 10.1583 16.1934L9.66998 15.705C9.23395 15.2692 8.90006 14.7421 8.69238 14.1617C8.48469 13.5813 8.40839 12.962 8.46898 12.3485C8.52956 11.735 8.72552 11.1426 9.04272 10.614C9.35992 10.0854 9.79047 9.63378 10.3033 9.29169L11.7433 8.33336Z" fill="url(#paint0_linear_91_46)"/>
    <defs>
        <linearGradient id="paint0_linear_91_46" x1="19.1675" y1="4.81128" x2="19.1675" y2="36.3066" gradientUnits="userSpaceOnUse">
            <stop stop-color="#FFB400"/>
            <stop offset="1" stop-color="#FF6A00"/>
        </linearGradient>
    </defs>
</svg>
