<svg width="24" height="24" viewBox="0 0 24 24" fill="none" xmlns="http://www.w3.org/2000/svg">
    <path fill-rule="evenodd" clip-rule="evenodd" d="M8.96159 18.4682C6.01871 16.2133 1.99988 12.4885 1.99988 8.9666C1.99988 3.08285 7.49965 0.885942 11.9995 5.42975C16.4993 0.885942 21.999 3.08285 21.999 8.9666C21.999 12.4885 17.9792 16.2133 15.0373 18.4682C13.7054 19.4882 13.0394 19.9991 11.9995 19.9991C10.9595 19.9991 10.2935 19.4892 8.96159 18.4682ZM16.4993 6.24972C16.6982 6.24972 16.8889 6.32873 17.0296 6.46938C17.1702 6.61002 17.2492 6.80078 17.2492 6.99969V8.24963H18.4992C18.6981 8.24963 18.8888 8.32865 19.0295 8.46929C19.1701 8.60994 19.2492 8.8007 19.2492 8.9996C19.2492 9.19851 19.1701 9.38926 19.0295 9.52991C18.8888 9.67056 18.6981 9.74957 18.4992 9.74957H17.2492V10.9995C17.2492 11.1984 17.1702 11.3892 17.0296 11.5298C16.8889 11.6705 16.6982 11.7495 16.4993 11.7495C16.3004 11.7495 16.1096 11.6705 15.969 11.5298C15.8283 11.3892 15.7493 11.1984 15.7493 10.9995V9.74957H14.4994C14.3004 9.74957 14.1097 9.67056 13.969 9.52991C13.8284 9.38926 13.7494 9.19851 13.7494 8.9996C13.7494 8.8007 13.8284 8.60994 13.969 8.46929C14.1097 8.32865 14.3004 8.24963 14.4994 8.24963H15.7493V6.99969C15.7493 6.80078 15.8283 6.61002 15.969 6.46938C16.1096 6.32873 16.3004 6.24972 16.4993 6.24972Z" fill="url(#paint0_linear_91_54)"/>
    <defs>
        <linearGradient id="paint0_linear_91_54" x1="11.9995" y1="2.99976" x2="11.9995" y2="19.9991" gradientUnits="userSpaceOnUse">
            <stop stop-color="#FF6A00"/>
            <stop offset="1" stop-color="#FFB400"/>
        </linearGradient>
    </defs>
</svg>
