<svg width="24" height="24" viewBox="0 0 24 24" fill="none" xmlns="http://www.w3.org/2000/svg">
    <path d="M11.9995 11.9995C10.8996 11.9995 9.95796 11.6079 9.17466 10.8246C8.39136 10.0413 7.99971 9.09966 7.99971 7.99971C7.99971 6.89976 8.39136 5.95813 9.17466 5.17483C9.95796 4.39153 10.8996 3.99988 11.9995 3.99988C13.0995 3.99988 14.0411 4.39153 14.8244 5.17483C15.6077 5.95813 15.9994 6.89976 15.9994 7.99971C15.9994 9.09966 15.6077 10.0413 14.8244 10.8246C14.0411 11.6079 13.0995 11.9995 11.9995 11.9995ZM3.99988 17.9993V17.1993C3.99988 16.6327 4.14587 16.112 4.43786 15.6374C4.72985 15.1627 5.11716 14.8001 5.59981 14.5494C6.6331 14.0328 7.68306 13.6455 8.74968 13.3875C9.8163 13.1295 10.8996 13.0002 11.9995 12.9995C13.0995 12.9988 14.1828 13.1282 15.2494 13.3875C16.316 13.6468 17.366 14.0341 18.3993 14.5494C18.8826 14.7994 19.2702 15.1621 19.5622 15.6374C19.8542 16.1127 19.9999 16.6333 19.9992 17.1993V17.9993C19.9992 18.5493 19.8035 19.0202 19.4122 19.4122C19.0209 19.8042 18.5499 19.9999 17.9993 19.9992H5.99979C5.44982 19.9992 4.97917 19.8035 4.58785 19.4122C4.19654 19.0209 4.00054 18.5499 3.99988 17.9993Z" fill="url(#paint0_linear_91_62)"/>
    <defs>
        <linearGradient id="paint0_linear_91_62" x1="11.9995" y1="3.99988" x2="11.9995" y2="19.9992" gradientUnits="userSpaceOnUse">
            <stop stop-color="#FF6A00"/>
            <stop offset="1" stop-color="#FFB400"/>
        </linearGradient>
    </defs>
</svg>
