<svg width="40" height="40" viewBox="0 0 40 40" fill="none" xmlns="http://www.w3.org/2000/svg">
    <path d="M1.66669 28.6667C1.66669 27.7222 1.91002 26.8544 2.39669 26.0633C2.88335 25.2722 3.52891 24.6678 4.33335 24.25C6.05558 23.3889 7.80558 22.7433 9.58335 22.3133C11.3611 21.8833 13.1667 21.6678 15 21.6667C16.8334 21.6656 18.6389 21.8811 20.4167 22.3133C22.1945 22.7456 23.9445 23.3911 25.6667 24.25C26.4722 24.6667 27.1184 25.2711 27.605 26.0633C28.0917 26.8556 28.3345 27.7233 28.3334 28.6667V30C28.3334 30.9167 28.0072 31.7017 27.355 32.355C26.7028 33.0083 25.9178 33.3344 25 33.3333H5.00002C4.08335 33.3333 3.29891 33.0072 2.64669 32.355C1.99446 31.7028 1.6678 30.9178 1.66669 30V28.6667ZM30.75 33.3333C31.0556 32.8333 31.285 32.2989 31.4384 31.73C31.5917 31.1611 31.6678 30.5844 31.6667 30V28.3333C31.6667 27.1111 31.3267 25.9372 30.6467 24.8117C29.9667 23.6861 29.0011 22.7211 27.75 21.9167C29.1667 22.0833 30.5 22.3683 31.75 22.7717C33 23.175 34.1667 23.6678 35.25 24.25C36.25 24.8056 37.0139 25.4233 37.5417 26.1033C38.0695 26.7833 38.3334 27.5267 38.3334 28.3333V30C38.3334 30.9167 38.0072 31.7017 37.355 32.355C36.7028 33.0083 35.9178 33.3344 35 33.3333H30.75ZM15 20C13.1667 20 11.5972 19.3472 10.2917 18.0417C8.98613 16.7361 8.33335 15.1667 8.33335 13.3333C8.33335 11.5 8.98613 9.93056 10.2917 8.625C11.5972 7.31945 13.1667 6.66667 15 6.66667C16.8334 6.66667 18.4028 7.31945 19.7084 8.625C21.0139 9.93056 21.6667 11.5 21.6667 13.3333C21.6667 15.1667 21.0139 16.7361 19.7084 18.0417C18.4028 19.3472 16.8334 20 15 20ZM31.6667 13.3333C31.6667 15.1667 31.0139 16.7361 29.7084 18.0417C28.4028 19.3472 26.8334 20 25 20C24.6945 20 24.3056 19.9656 23.8334 19.8967C23.3611 19.8278 22.9722 19.7511 22.6667 19.6667C23.4167 18.7778 23.9934 17.7917 24.3967 16.7083C24.8 15.625 25.0011 14.5 25 13.3333C24.9989 12.1667 24.7978 11.0417 24.3967 9.95834C23.9956 8.875 23.4189 7.88889 22.6667 7C23.0556 6.86111 23.4445 6.77056 23.8334 6.72834C24.2222 6.68611 24.6111 6.66556 25 6.66667C26.8334 6.66667 28.4028 7.31945 29.7084 8.625C31.0139 9.93056 31.6667 11.5 31.6667 13.3333Z" fill="url(#paint0_linear_91_42)"/>
    <defs>
        <linearGradient id="paint0_linear_91_42" x1="20" y1="6.66663" x2="20" y2="33.3333" gradientUnits="userSpaceOnUse">
            <stop stop-color="#FFB400"/>
            <stop offset="1" stop-color="#FF6A00"/>
        </linearGradient>
    </defs>
</svg>
