<svg width="38" height="38" viewBox="0 0 38 38" fill="none" xmlns="http://www.w3.org/2000/svg">
    <path d="M20.8083 13.3408H23.6268C24.0175 13.3411 24.4022 13.4383 24.7462 13.6237C25.0902 13.8091 25.3828 14.0769 25.5979 14.4031C25.8131 14.7294 25.9439 15.1039 25.9788 15.4931C26.0136 15.8824 25.9514 16.2742 25.7977 16.6334L19.559 31.1952C19.4084 31.5438 19.1423 31.83 18.8054 32.0055C18.4686 32.181 18.0816 32.2351 17.7095 32.1587C17.3375 32.0824 17.0031 31.8802 16.7626 31.5862C16.5222 31.2922 16.3903 30.9243 16.3892 30.5445V19.6425L14.1001 19.5716C13.4871 19.5512 12.9061 19.2932 12.4798 18.8522C12.0535 18.4113 11.8154 17.8218 11.8157 17.2085V7.87719C11.8157 7.25044 12.0647 6.64936 12.5079 6.20619C12.9511 5.76301 13.5521 5.51404 14.1789 5.51404H18.4452C19.0719 5.51404 19.673 5.76301 20.1162 6.20619C20.5593 6.64936 20.8083 7.25044 20.8083 7.87719V13.3408Z" fill="url(#paint0_linear_63_341)"/>
    <defs>
        <linearGradient id="paint0_linear_63_341" x1="18.902" y1="5.51404" x2="18.902" y2="32.1925" gradientUnits="userSpaceOnUse">
            <stop stop-color="#FFB400"/>
            <stop offset="1" stop-color="#FF6A00"/>
        </linearGradient>
    </defs>
</svg>
